<?xml version="1.0"?>
<svg width="500" height="384" xmlns="http://www.w3.org/2000/svg" xmlns:svg="http://www.w3.org/2000/svg" preserveAspectRatio="xMidYMid meet" version="1.0">
 <g class="layer">
  <title>Layer 1</title>
  <g fill="#000000" id="svg_1" transform="matrix(0.1 0 0 -0.1 0 0)">
   <path d="m895,-9c-73,-18 -112,-51 -144,-121c-20,-43 -21,-64 -21,-455c0,-379 2,-413 19,-450c44,-94 91,-118 241,-125l115,-5l3,-157c2,-154 3,-158 27,-174c17,-11 29,-13 42,-6c10,6 108,85 218,176l200,166l210,-3l210,-2l5,-115c5,-103 8,-121 33,-162c15,-26 43,-59 62,-74c69,-52 76,-53 555,-54l446,0l179,-149c99,-82 181,-154 183,-159c1,-5 -12,-26 -29,-48c-46,-57 -96,-166 -115,-252c-21,-95 -15,-240 15,-332c60,-190 224,-352 416,-413c100,-31 280,-31 380,0c167,53 305,172 379,326c24,51 49,116 55,145c16,75 13,216 -5,292c-51,220 -238,409 -459,465c-111,28 -308,14 -407,-29c-16,-7 -18,-1 -18,73l0,81l133,0c117,0 138,3 182,24c55,25 110,81 131,132c19,44 21,1015 2,1075c-15,51 -69,114 -122,142l-41,22l-741,3l-741,3l-19,40c-25,57 -85,105 -146,118c-56,13 -1384,14 -1433,2zm1429,-103c14,-6 33,-22 41,-35l15,-23l-68,0c-99,0 -165,-23 -217,-75c-71,-71 -75,-94 -75,-487l0,-338l-234,0l-235,0l-168,-139l-168,-138l-5,126c-3,69 -9,132 -13,139c-6,8 -45,12 -139,12c-100,0 -138,4 -164,16c-64,31 -64,30 -64,477c0,398 0,405 21,431c12,15 31,32 43,36c34,14 1400,12 1430,-2zm1656,-180c18,-13 43,-36 54,-51c21,-28 21,-37 21,-525l0,-497l-23,-36c-37,-60 -68,-69 -244,-69c-209,0 -198,10 -198,-174c0,-114 -3,-146 -15,-156c-12,-10 -48,16 -217,156l-202,169l-471,5c-522,6 -503,3 -545,73c-19,31 -20,54 -20,528l0,496l23,34c48,73 -7,69 948,69l856,0l33,-22zm152,-1511c182,-66 314,-216 353,-402c18,-88 18,-132 0,-218c-53,-250 -271,-427 -526,-429c-150,-1 -276,51 -383,157c-107,106 -160,237 -159,390c3,256 181,470 438,525c69,15 203,4 277,-23z" id="svg_2"/>
   <path d="m2612,-409l-33,-6l51,-77c87,-133 135,-157 313,-158c66,0 127,-5 139,-11c18,-9 16,-2 -13,51c-47,87 -114,159 -174,186c-43,20 -65,24 -150,23c-55,-1 -115,-4 -133,-8z" fill="#007f00" id="svg_3" transform="matrix(1 0 0 1 0 0)"/>
   <path d="m3282,-646c-29,-7 -67,-21 -84,-30c-29,-15 -30,-17 -12,-27c10,-6 54,-43 96,-83c101,-94 151,-118 227,-111c32,2 80,15 107,27l49,22l-100,94c-79,74 -110,97 -149,109c-59,18 -66,18 -134,-1z" fill="#007f00" id="svg_4" transform="matrix(1 0 0 1 0 0)"/>
   <path d="m2998,-902c-43,-77 -67,-144 -79,-216c-17,-101 0,-216 29,-198c8,5 8,15 0,34c-16,42 -13,180 6,246c10,33 31,86 47,118c34,67 32,78 -3,16z" fill="#7f3f00" id="svg_5"/>
   <path d="m830,-1696c-201,-53 -378,-219 -445,-419c-40,-119 -37,-283 6,-413c27,-83 106,-198 176,-261c149,-133 365,-189 565,-147c177,38 349,174 427,336c99,206 92,427 -21,618c-77,132 -240,252 -389,287c-80,19 -246,18 -319,-1zm294,-94c101,-26 177,-69 251,-144c113,-115 160,-238 153,-400c-9,-191 -89,-331 -252,-438c-209,-136 -503,-97 -678,90c-248,265 -168,695 157,852c128,62 237,74 369,40z" id="svg_6"/>
   <path d="m540,-3041c-25,-5 -83,-27 -130,-50c-216,-106 -375,-369 -388,-642l-5,-107l47,0l46,0l0,41c0,65 20,176 46,251c67,199 205,349 365,399c77,24 140,24 325,-1l148,-20l150,21c187,25 260,17 386,-46c195,-98 340,-350 340,-591l0,-54l51,0l52,0l-7,82c-12,138 -33,217 -85,323c-79,159 -178,262 -316,330c-138,68 -232,79 -441,50c-129,-17 -134,-17 -290,4c-168,22 -221,24 -294,10z" id="svg_7"/>
   <path d="m3488,-3046c-269,-65 -484,-361 -505,-696l-6,-98l45,0c45,0 45,1 52,37c3,21 6,54 6,74c0,55 37,186 74,264c98,205 272,335 449,335c35,0 128,-9 207,-20l145,-20l150,21c93,13 169,18 200,14c220,-29 412,-195 489,-427c20,-59 44,-202 46,-270c0,-5 21,-8 47,-8l46,0l-6,97c-18,281 -169,523 -398,639c-132,66 -232,77 -445,49c-128,-17 -133,-17 -290,4c-182,24 -226,25 -306,5z" id="svg_8"/>
  </g>
 </g>
</svg>