<?xml version="1.0"?>
<svg width="512" height="512" xmlns="http://www.w3.org/2000/svg" xmlns:svg="http://www.w3.org/2000/svg" preserveAspectRatio="xMidYMid meet" version="1.0">
 <g class="layer">
  <title>Layer 1</title>
  <g fill="#000000" id="svg_1" transform="matrix(0.1 0 0 -0.1 0 0)">
   <path d="m2375,-326c-448,-48 -820,-191 -1165,-447c-108,-80 -320,-287 -402,-392c-576,-737 -644,-1737 -171,-2531c82,-137 168,-253 198,-264c30,-11 82,5 95,30c20,37 10,72 -39,139c-210,285 -339,602 -392,966c-19,127 -16,433 5,570c57,362 205,707 426,985c68,87 228,248 317,322c308,252 709,417 1112,458c607,61 1227,-160 1660,-591c325,-324 526,-720 597,-1179c23,-145 23,-448 0,-595c-47,-302 -156,-591 -318,-837c-36,-55 -60,-102 -60,-120c-1,-36 37,-78 72,-78c40,0 68,26 127,118c176,272 293,585 339,907c21,144 23,436 5,575c-88,663 -439,1230 -986,1595c-270,180 -581,300 -905,350c-101,15 -433,28 -515,19z" id="svg_2"/>
   <path d="m2505,-905l-25,-24l0,-658l0,-658l-47,-22c-74,-34 -119,-78 -154,-148l-32,-65l-457,0c-421,0 -459,-1 -479,-17c-34,-29 -37,-74 -8,-109l25,-29l460,-3l460,-3l26,-54c98,-199 367,-241 516,-79c64,70 85,124 84,219c0,63 -5,91 -24,130c-31,64 -107,138 -165,160l-45,18l0,659l0,659l-25,24c-15,16 -36,25 -55,25c-19,0 -40,-9 -55,-25zm135,-1517c72,-50 95,-116 65,-194c-48,-125 -221,-133 -283,-14c-55,107 19,230 138,230c32,0 57,-7 80,-22z" id="svg_3"/>
   <path d="m1060,-2918c-8,-2 -25,-13 -37,-24c-18,-17 -22,-35 -28,-131c-12,-195 17,-468 70,-652c134,-465 418,-742 855,-838c79,-17 125,-20 270,-19c96,1 190,3 208,5c33,2 34,0 60,-67c16,-40 38,-77 52,-88c53,-38 307,-74 475,-65c501,25 879,319 1043,813c64,190 97,463 85,690c-5,99 -9,120 -27,140c-35,39 -66,40 -122,1c-122,-84 -233,-123 -734,-257c-153,-41 -355,-112 -483,-169l-67,-30l-82,83c-133,133 -282,197 -768,332c-404,113 -571,173 -672,242c-47,31 -75,41 -98,34zm148,-246c56,-29 211,-78 493,-156c437,-122 599,-182 727,-268c61,-42 102,-85 102,-107c0,-6 -18,-31 -40,-54c-54,-57 -95,-131 -116,-210c-10,-36 -19,-68 -20,-69c-1,-2 -49,32 -106,76c-208,160 -495,332 -555,332c-41,0 -73,-33 -73,-76c0,-46 19,-62 155,-136c212,-115 459,-294 547,-397c24,-28 37,-55 41,-84c4,-23 9,-56 13,-73l6,-31l-104,-7c-206,-13 -403,22 -573,104c-299,144 -473,429 -530,867c-18,134 -20,303 -5,303c6,0 23,-6 38,-14zm2732,-426c-19,-203 -70,-401 -137,-535c-137,-274 -386,-449 -702,-495c-93,-14 -396,-10 -424,6c-15,9 -14,15 18,63c83,126 197,230 400,366c77,51 191,121 253,155c146,81 169,113 121,174c-34,44 -72,36 -217,-45c-310,-174 -544,-357 -662,-521l-28,-39l-11,33c-84,269 -55,458 94,597c111,103 267,168 672,276c257,70 432,124 543,169l85,34l3,-61c2,-34 -2,-114 -8,-177z" fill="#007f00" id="svg_4"/>
  </g>
 </g>
</svg>