<?xml version="1.0"?>
<svg width="512" height="512" xmlns="http://www.w3.org/2000/svg" xmlns:svg="http://www.w3.org/2000/svg" preserveAspectRatio="xMidYMid meet" version="1.0">
 <g class="layer">
  <title>Layer 1</title>
  <g id="svg_44">
   <rect fill="#007f00" height="23.47" id="svg_41" width="48" x="111.15" y="106.45"/>
   <rect fill="#007f00" height="49.07" id="svg_40" width="147.2" x="96.21" y="59.52"/>
   <rect fill="#007f00" height="33.07" id="svg_42" width="140.8" x="81.28" y="46.72"/>
   <rect fill="#007f00" height="34.13" id="svg_37" width="153.6" x="270.08" y="57.39"/>
   <rect fill="#007f00" height="32" id="svg_38" width="142.93" x="289.28" y="45.65"/>
   <rect fill="#007f00" height="59.73" id="svg_39" width="48" x="360.75" y="64.85"/>
   <rect fill="#007f00" height="65.07" id="svg_36" width="240" x="138.88" y="79.79"/>
  </g>
  <rect fill="#7f7f00" height="211.2" id="svg_43" width="32" x="240.21" y="124.59"/>
  <g id="svg_34" transform="matrix(1 0 0 1 0 0)">
   <rect fill="#007f00" height="121.6" id="svg_22" width="29.87" x="148.48" y="203.52"/>
   <rect fill="#007f00" height="25.6" id="svg_24" width="19.2" x="139.95" y="188.59"/>
   <rect fill="#007f00" height="19.2" id="svg_21" width="42.67" x="23.68" y="236.59"/>
   <rect fill="#007f00" height="69.33" id="svg_20" width="129.07" x="13.01" y="171.52"/>
   <rect fill="#007f00" height="65.07" id="svg_19" width="140.8" x="40.75" y="210.99"/>
  </g>
  <g id="svg_33" transform="matrix(1 0 0 1 0 0)">
   <rect fill="#007f00" height="122.44" id="svg_30" width="29.68" x="332.99" y="203.74"/>
   <rect fill="#007f00" height="25.78" id="svg_29" width="19.08" x="352.07" y="188.7"/>
   <rect fill="#007f00" height="19.33" id="svg_28" width="42.4" x="444.28" y="237.04"/>
   <rect fill="#007f00" height="69.81" id="svg_27" width="128.25" x="369.03" y="171.52"/>
   <rect fill="#007f00" height="65.52" id="svg_26" rx="0" ry="0" width="139.91" x="329.81" y="211.26"/>
  </g>
  <rect fill="#7f3f00" height="43.73" id="svg_12" width="10.67" x="-617.39" y="66.99"/>
  <g id="svg_35">
   <rect fill="#7f3f00" height="123.73" id="svg_11" transform="matrix(1 0 0 1 0 0)" width="180.27" x="122.88" y="378.45"/>
   <rect fill="#7f3f00" height="124.8" id="svg_13" transform="matrix(1 0 0 1 0 0)" width="89.6" x="302.08" y="377.39"/>
   <rect fill="#7f3f00" height="122.67" id="svg_16" width="80" x="35.41" y="377.39"/>
   <rect fill="#7f3f00" height="115.2" id="svg_17" width="76.8" x="397.01" y="383.79"/>
   <rect fill="#7f3f00" height="39.47" id="svg_10" transform="matrix(1 0 0 1 0 0)" width="499.2" x="7.68" y="330.45"/>
  </g>
  <g fill="#000000" id="svg_1" transform="matrix(0.1 0 0 -0.1 0 0)">
   <path d="m743,-346c-26,-26 -26,-28 -19,-128c31,-484 354,-908 808,-1060c157,-53 196,-58 501,-63l287,-5l0,-799l0,-799l-200,0l-200,0l0,394c0,434 -7,507 -59,642c-87,224 -281,418 -501,503c-147,57 -198,61 -782,61l-529,0l-24,-25c-25,-24 -25,-25 -25,-233c0,-143 5,-237 15,-297c62,-357 353,-648 710,-710c65,-11 162,-15 377,-15l289,0l24,-25c24,-23 25,-29 25,-160l0,-135l-695,0l-696,0l-24,-25l-25,-24l0,-271l0,-271l25,-24c22,-23 32,-25 120,-25l95,0l0,-615l0,-616l25,-24l24,-25l2271,0l2271,0l24,25l25,24l0,616l0,615l95,0c88,0 98,2 120,25l25,24l0,271l0,271l-25,24l-24,25l-696,0l-695,0l0,134c0,117 2,137 19,157l19,24l334,6c298,5 341,8 408,27c316,89 544,317 632,632c18,64 22,111 25,322l5,247l-26,25l-25,26l-529,0c-581,0 -637,-4 -778,-59c-224,-87 -418,-281 -503,-501c-54,-140 -61,-210 -61,-646l0,-394l-200,0l-200,0l0,799l0,799l288,5c242,4 300,8 372,25c230,55 420,161 586,326c213,214 332,478 351,778c6,94 5,97 -21,123l-26,26l-603,-4c-667,-4 -640,-1 -795,-73c-145,-66 -272,-180 -354,-315l-37,-60l-17,28c-54,89 -73,114 -128,172c-82,85 -181,154 -279,192c-149,57 -174,59 -798,59l-570,0l-26,-26zm1232,-149c214,-44 408,-222 476,-435c16,-48 22,-100 26,-200l4,-135l-23,26c-13,14 -56,65 -97,113c-128,150 -297,300 -475,420c-108,74 -141,82 -181,41c-52,-51 -30,-91 96,-175c180,-122 389,-319 537,-507l72,-93l-283,0c-301,0 -397,9 -527,52c-343,111 -605,394 -690,747c-10,42 -21,95 -23,119l-5,42l511,0c409,0 526,-3 582,-15zm2261,-7c-3,-13 -8,-45 -11,-73c-15,-114 -92,-304 -168,-414c-47,-69 -184,-208 -252,-256c-74,-53 -188,-110 -280,-142c-126,-43 -227,-53 -533,-53l-282,0l72,93c148,188 361,389 542,510c121,82 142,122 91,172c-40,41 -73,33 -181,-41c-178,-120 -347,-270 -475,-420c-41,-48 -84,-99 -97,-113l-23,-26l4,130c4,108 9,144 32,212c58,174 202,329 366,394c115,45 146,47 687,48l512,1l-4,-22zm-1596,-1898l0,-800l-80,0l-80,0l0,800l0,800l80,0l80,0l0,-800zm-1388,609c123,-42 204,-93 298,-188c129,-130 190,-266 205,-461c6,-70 5,-74 -10,-55c-126,157 -235,263 -386,377c-140,106 -365,238 -404,238c-25,0 -75,-55 -75,-82c0,-38 27,-66 98,-102c37,-19 114,-65 172,-103c248,-164 410,-326 554,-557l56,-89l0,-194l0,-193l-80,0l-80,0l0,136c0,159 -10,199 -61,258c-71,80 -70,80 -454,87c-334,5 -341,6 -420,32c-114,38 -198,90 -290,182c-92,91 -144,175 -182,290c-23,72 -26,100 -31,268l-4,188l508,-3l509,-3l77,-26zm3157,27c-2,-2 -35,-16 -74,-31c-185,-73 -417,-204 -586,-332c-150,-112 -173,-150 -128,-207c36,-46 78,-37 168,36c277,224 680,413 1074,502c109,25 100,41 95,-161c-5,-157 -8,-188 -31,-258c-38,-114 -90,-198 -182,-290c-91,-91 -175,-144 -290,-182c-79,-26 -86,-27 -420,-32c-384,-7 -383,-7 -454,-87c-51,-59 -61,-99 -61,-258l0,-136l-81,0l-80,0l3,428l4,427l25,77c41,120 93,204 183,294c111,111 239,179 381,203c49,8 462,15 454,7zm551,-1756l0,-160l-2400,0l-2400,0l0,160l0,160l2400,0l2400,0l0,-160zm-3840,-880l0,-560l-360,0l-360,0l0,560l0,560l360,0l360,0l0,-560zm880,425c0,-131 1,-137 25,-160c32,-33 78,-33 110,0c24,23 25,29 25,160l0,135l400,0l400,0l0,-560l0,-560l-400,0l-400,0l0,135c0,131 -1,137 -25,160c-32,33 -78,33 -110,0c-24,-23 -25,-29 -25,-160l0,-135l-360,0l-360,0l0,560l0,560l360,0l360,0l0,-135zm1840,-425l0,-560l-360,0l-360,0l0,560l0,560l360,0l360,0l0,-560zm880,0l0,-560l-360,0l-360,0l0,560l0,560l360,0l360,0l0,-560z" id="svg_2"/>
   <path d="m2025,-4345c-50,-49 -15,-135 55,-135c19,0 40,9 55,25c16,15 25,36 25,55c0,19 -9,40 -25,55c-15,16 -36,25 -55,25c-19,0 -40,-9 -55,-25z" id="svg_3"/>
  </g>
 </g>
</svg>