<?xml version="1.0"?>
<svg width="512" height="512" xmlns="http://www.w3.org/2000/svg" xmlns:svg="http://www.w3.org/2000/svg" preserveAspectRatio="xMidYMid meet" version="1.0">
 <g class="layer">
  <title>Layer 1</title>
  <g fill="#000000" id="svg_1" transform="matrix(0.1 0 0 -0.1 0 0)">
   <path d="m408,-301c-98,-8 -298,-36 -305,-43c-6,-6 18,-211 38,-336c72,-437 230,-781 468,-1019c115,-115 213,-184 363,-256c119,-57 239,-95 378,-121c115,-21 392,-29 505,-15l90,12l99,-103c274,-286 530,-633 720,-978c47,-85 89,-162 94,-170c8,-13 20,-10 80,19l71,34l-50,100c-28,54 -87,161 -132,236c-99,165 -95,154 -106,255c-17,146 23,352 92,484l23,44l161,-1c588,-5 950,246 1065,738c15,65 21,136 25,293c5,192 4,208 -12,214c-29,11 -352,-14 -457,-36c-357,-74 -605,-254 -739,-535c-63,-134 -98,-276 -106,-435c-5,-100 -10,-130 -25,-152c-65,-93 -134,-293 -145,-421c-3,-37 -9,-70 -13,-72c-4,-2 -42,40 -84,95c-101,132 -239,293 -352,410l-91,95l-6,137c-35,739 -364,1267 -905,1448c-127,42 -254,67 -406,80c-142,11 -181,11 -338,-1z" fill="#00007f" id="svg_2"/>
   <path d="m2320,-1187c-91,-14 -220,-48 -218,-57c2,-6 15,-57 28,-114c24,-100 26,-103 50,-98c14,3 54,13 90,21c130,29 346,29 456,-1c17,-4 24,1 34,27c8,18 35,65 61,105l48,73l-42,12c-100,27 -200,38 -337,37c-80,0 -156,-2 -170,-5z" id="svg_3"/>
   <path d="m3715,-2135c-31,-20 -91,-47 -171,-79c-1,-1 4,-30 11,-65c88,-421 -97,-873 -453,-1112c-503,-337 -1179,-202 -1510,301c-71,107 -114,205 -149,339c-22,81 -26,119 -27,246c0,92 4,173 13,208c7,32 11,60 9,63c-3,2 -45,11 -94,19c-49,9 -99,18 -111,21c-34,9 -48,-75 -48,-301c0,-203 9,-265 63,-425c80,-240 259,-485 467,-638c155,-114 371,-203 574,-237c132,-22 363,-16 491,14c171,39 349,118 478,212l67,49l105,-105l105,-105l-58,-58l-57,-57l618,-616c687,-687 649,-655 787,-653c165,1 288,124 289,289c2,138 34,100 -653,787l-616,618l-57,-57l-58,-58l-105,105c-98,98 -104,105 -90,125c187,262 260,467 272,761c6,151 -8,286 -40,393l-12,40l-40,-24z" fill="#000000" id="svg_4" transform="matrix(1 0 0 1 0 0)"/>
  </g>
 </g>
</svg>